<svg width="205" height="131" viewBox="0 0 205 131" fill="none" xmlns="http://www.w3.org/2000/svg">
<path d="M204.606 -0.000244141C186.952 18.4412 164.409 27.2495 139.127 30.5275C121.813 32.7574 104.249 33.1588 87.0705 36.9273C67.8774 41.1419 49.9745 48.0769 36.1907 62.5491C26.8658 72.383 20.8227 84.2907 15.436 96.466C10.7282 107.08 6.38252 117.873 1.04105 128.198C0.701546 128.844 0.362134 129.491 0 130.138V117.026C1.87857 113.035 3.64401 108.998 5.40941 104.94C5.54521 104.605 5.40942 104.115 5.27362 102.933L0 109.043V99.8109C3.28938 95.6632 6.42025 91.4042 9.39277 87.0335C17.9482 74.5014 26.6168 61.9692 38.5446 52.2022C55.3159 38.5105 75.3465 32.4006 96.4181 29.3902C112.261 27.1603 128.105 26.2015 143.948 23.8824C164.024 20.9166 181.882 13.5354 196.48 -0.000244141H204.606Z" fill="#D6B283"/>
</svg>
