<svg width="237" height="168" viewBox="0 0 237 168" fill="none" xmlns="http://www.w3.org/2000/svg">
<path d="M236.225 -0.000244141C214.904 28.2454 186.152 42.9704 149.969 44.1746C137.747 44.5314 125.525 44.6875 113.325 45.8916C86.3011 48.6121 65.6595 61.501 50.1103 83.1312C39.7442 97.5364 32.2526 113.48 24.3535 129.157C17.6821 142.696 9.51487 155.469 0 167.244V157.99C2.037 155.291 3.96086 152.504 5.81679 149.65C12.6279 138.909 18.8094 127.794 24.3309 116.357C30.2638 103.938 37.1335 91.974 44.882 80.5667C63.3735 54.1422 88.9945 40.919 121.247 39.2689C135.461 38.5553 149.743 39.0903 163.911 37.1726C190.913 33.4932 212.097 20.3366 228.846 -0.000244141H236.225Z" fill="#D6B283"/>
</svg>
