<svg width="335" height="496" viewBox="0 0 335 496" fill="none" xmlns="http://www.w3.org/2000/svg">
<path d="M334.476 -0.000244141C317.094 7.42538 302.11 18.642 287.353 30.2376C276.965 38.4214 266.983 47.0067 255.984 54.5884C235.184 69.0159 212.414 73.5203 187.608 69.3281C181.656 68.3246 175.68 67.3433 169.841 65.8493C136.887 57.5094 112.601 71.2903 96.2598 96.7559C80.7107 121.017 73.7849 148.044 70.2767 176.23C66.7686 204.416 68.2623 232.848 70.7746 261.146C73.0834 290.497 72.8108 319.99 69.9598 349.294C67.6965 374.47 68.4434 399.557 76.7499 423.974C86.1212 452.862 104.844 477.927 130.051 495.332H120.319C100.543 480.058 85.0609 460.053 75.3466 437.22C66.0895 415.679 62.8077 393.023 63.1925 369.72C63.532 348.96 66.4516 328.355 66.8138 307.617C67.1533 288.261 65.569 268.928 64.0299 249.639C60.7933 209.835 61.5175 170.343 73.8527 131.855C80.2353 111.919 88.7455 93.0544 104.046 77.8909C110.731 71.4505 118.476 66.1727 126.951 62.2815C125.167 61.69 123.235 61.69 121.451 62.2815C97.2104 66.5183 79.8732 80.3662 67.3569 100.525C53.528 122.824 46.9869 147.353 44.1577 173.242C40.4232 206.981 44.882 240.14 50.2235 273.388C55.2254 304.607 57.9642 336.071 55.5877 367.713C53.8223 390.994 57.602 413.583 63.283 436.016C66.1348 447.411 68.5792 458.895 71.4989 470.29C74.0619 480.018 79.5063 488.774 87.1385 495.443H74.1923C71.7026 489.489 69.5072 483.379 67.4023 477.158C61.3365 458.248 57.8283 438.669 53.6185 419.18C45.0624 377.891 26.7298 339.177 0.113277 306.19V297.27C7.66447 306.061 14.6781 315.287 21.117 324.899C22.1355 326.415 23.1993 327.887 24.2857 329.359C25.3495 328.378 24.5347 327.53 24.2857 326.839C18.8642 309.939 10.6928 294.018 0.0906219 279.698V270.377C17.3131 291.136 28.9848 315.814 34.0407 342.159C34.8869 346.498 36.1995 350.736 37.9562 354.802C41.6002 363.008 45.0631 371.304 49.2729 379.532C49.6124 373.422 50.0651 367.312 50.2914 361.202C51.1417 347.031 50.801 332.815 49.2729 318.7C46.8285 300.526 39.0426 284.203 28.337 269.352C20.3688 258.138 10.8283 248.093 0 239.515V232.357C17.9039 245.386 32.5123 262.312 42.6867 281.817C43.1846 282.754 43.773 283.668 44.3388 284.582C44.8113 285.034 45.31 285.458 45.8326 285.853C43.4108 265.204 41.985 245.157 26.2775 229.793C18.5988 222.196 9.72538 215.871 0 211.062V204.617C2.46704 205.71 4.91154 206.847 7.31067 208.23C19.2129 214.935 29.6389 223.91 37.9789 234.632C38.6786 231.314 38.7552 227.898 38.2052 224.553C36.0558 202.664 36.7556 180.595 40.2875 158.882C44.5652 133.594 52.6001 109.823 68.3076 88.9066C84.83 67.0534 107.011 55.7702 134.669 55.0789C150.761 54.6998 166.876 55.5026 182.878 53.1612C209.464 49.361 233.954 36.7819 252.34 17.4825C257.709 12.0784 262.643 6.27041 267.096 0.111361H274.158C270.099 6.08889 265.614 11.7747 260.737 17.1256C238.307 41.8331 210.626 56.4836 176.993 59.6947C176.063 59.7346 175.152 59.9704 174.322 60.3861C191.592 64.8459 208.838 67.834 226.628 62.616C243.037 57.7102 256.549 48.2107 269.518 37.7077C283.506 26.3575 297.222 14.6506 312.703 5.2626C315.622 3.52327 318.542 1.80621 321.53 0.222965L334.476 -0.000244141Z" fill="#D6B283"/>
</svg>
