<svg width="428" height="496" viewBox="0 0 428 496" fill="none" xmlns="http://www.w3.org/2000/svg">
<path d="M413.169 449.171C410.023 464.32 408.784 479.793 409.48 495.241H415.319C415.116 492.119 415.048 488.997 415.07 485.853C415.585 463.998 419.453 442.346 426.546 421.632C426.885 420.65 427.202 419.647 427.564 418.666V400.626C421.629 416.459 416.819 432.68 413.169 449.171ZM351.946 28.6975C373.448 18.9082 394.225 18.1054 413.893 33.4473C418.855 37.3668 423.404 41.7669 427.473 46.5815V37.7958C406.673 16.8568 381.12 8.80677 350.52 16.2547C322.092 23.1228 300.161 40.3824 280.583 60.8531C264.128 78.1349 250.91 97.9589 236.629 116.936C222.347 135.912 205.915 153.662 184.821 166.194C166.895 176.853 147.204 183.186 127.4 189.408C108.003 195.496 89.2177 202.988 73.4196 216.167C69.7077 219.266 66.2675 222.611 62.714 225.867C71.6774 211.528 84.0528 199.557 98.769 190.991C112.96 182.763 128.192 176.586 143.153 170.03C165.994 160.038 186.677 145.821 204.082 128.152C221.555 110.536 236.538 90.9125 251.906 71.5791C269.832 49.0346 289.206 27.895 315.099 13.6012C325.089 7.92219 335.666 3.30978 346.65 -0.157471H328.724C313.297 6.73006 298.94 15.7395 286.083 26.6015C269.809 40.4493 254.057 54.8993 238.553 69.6391C224.52 83.0186 209.967 95.7737 193.422 106.12C173.128 119.126 149.01 125.09 124.888 123.068C113.018 121.792 101.029 122.092 89.2403 123.96C70.0924 127.617 55.2902 137.83 43.6793 153.172C29.6919 171.747 23.4904 193.087 19.8237 215.453C17.5604 229.011 16.4514 242.681 15.0028 256.328C14.7539 258.424 14.3691 260.498 13.8938 263.642C11.9247 256.395 12.3548 250.017 12.0605 243.706C10.5214 211.06 13.7807 179.039 27.3607 148.823C36.4141 128.754 48.885 111.784 69.2324 101.549C79.8745 96.1921 91.5604 93.1502 103.499 92.6294C114.635 92.0942 125.771 92.8301 136.906 93.1645C159.2 93.7456 181.196 88.0107 200.28 76.6408C216.417 67.4089 230.654 55.6573 245.071 44.1063C265.803 27.4489 287.531 12.4862 313.107 3.76721C318.14 1.84922 323.392 0.546181 328.747 -0.112829H306.815C286.019 7.97231 266.66 19.2628 249.462 33.3359C233.619 45.9796 217.979 59.0914 200.596 69.7727C183.214 80.454 165.107 87.0993 144.647 87.1439C131.067 87.1439 117.487 86.5639 103.907 86.943C86.5941 87.4139 69.8361 93.06 55.856 103.132C38.3831 115.397 27.7228 132.523 19.9822 151.655C6.08531 186.063 4.4556 221.965 7.28477 258.357C8.48434 273.721 9.91024 289.107 7.85061 304.472C6.0852 317.472 3.50511 330.339 1.73971 343.339C-1.27053 365.794 -0.704759 388.116 6.06262 409.947C14.7086 438.289 32.3852 460.588 56.2861 477.959C64.5699 483.98 73.2158 489.488 81.7033 495.241H92.0921C80.7754 487.035 68.3497 480.278 57.282 471.604C31.7515 451.535 14.3917 426.716 8.3033 394.694C5.04707 376.013 5.10837 356.916 8.48441 338.255C14.0975 303.468 20.1858 268.748 23.4224 233.627C25.0067 216.278 27.7907 199.108 34.2185 182.718C42.3892 161.868 54.7923 144.52 75.7056 134.284C86.728 128.888 98.5426 128.04 110.584 128.263C124.028 128.531 137.472 129.758 150.916 128.018C172.78 125.186 191.453 115.374 208.926 102.842C218.454 96.1526 227.032 88.0135 236.425 80.9446C227.53 93.1646 218.748 105.697 207.319 115.687C190.117 130.761 170.539 142.067 147.793 147.307C135.616 150.117 123.326 152.636 111.172 155.58C84.1478 162.114 63.642 177.166 50.4241 201.427C43.8508 213.203 38.8452 225.764 35.5313 238.8C26.7722 274.479 21.046 310.626 15.1613 346.729C7.46593 393.958 23.6261 432.179 63.4835 460.231C76.0903 469.151 89.8287 476.265 102.526 485.006C107.102 488.142 111.472 491.56 115.608 495.241H124.05C117.989 489.649 111.579 484.435 104.857 479.632C103.001 478.338 103.047 477.067 104.857 475.685C120.701 463.955 131.497 448.435 139.034 430.35C140.007 448.19 139.509 466.029 134.281 483.222C132.989 487.463 130.926 491.437 128.192 494.951C128.192 495.085 127.989 495.241 127.875 495.353H135.005C135.82 493.814 136.589 492.387 137.268 490.893C142.112 480.947 143.606 470.221 144.375 459.384C144.896 451.78 145.281 444.154 145.303 436.527C145.439 410.17 146.208 383.812 144.85 357.432C143.741 335.133 147.612 313.57 160.83 294.615C169.465 282.286 182.431 273.547 197.224 270.086C198.934 269.612 200.723 269.482 202.484 269.705C204.246 269.927 205.944 270.497 207.477 271.38C212.796 274.252 217.956 277.4 222.936 280.812C222.936 282.061 222.392 282.328 221.827 282.44C188.148 289.598 170.562 312.209 161.984 343.25C158.433 356.539 156.541 370.205 156.348 383.946C155.805 406.513 157.254 429.057 157.842 451.624C158.182 463.978 157.842 476.309 154.605 488.395C154.02 490.849 152.985 493.177 151.55 495.263H170.879C173.059 493.021 174.808 490.406 176.039 487.548C177.194 484.789 179.073 482.383 181.483 480.577C183.894 478.77 186.749 477.628 189.755 477.268C195.232 476.287 200.778 475.551 206.3 474.837C209.774 474.499 213.14 473.457 216.186 471.776C219.231 470.095 221.892 467.812 223.999 465.07C227.319 460.614 231.811 457.137 236.991 455.013C252.427 448.837 268.678 446.718 285.087 445.893C288.346 445.737 289.613 447.097 289.387 450.219C289.002 457.065 289.387 463.933 288.572 470.779C287.599 480.591 288.957 488.618 292.805 495.308H299.595C297.949 493.244 296.699 490.901 295.906 488.395C294.28 482.807 293.75 476.964 294.344 471.18C297.037 437.352 295.34 403.725 287.056 370.834C278.863 338.344 264.423 308.976 238.779 285.852C238.236 285.361 237.76 284.781 236.357 283.332C238.998 284.01 241.435 285.303 243.464 287.101C266.867 303.959 282.212 326.57 291.899 353.195C299.219 374.281 303.619 396.243 304.982 418.487C306.272 434.944 306.159 451.401 305.977 467.858C305.977 476.777 306.272 485.697 306.815 495.353H312.745C312.745 494.974 312.745 494.594 312.632 494.215C310.912 478.606 311.998 462.818 311.907 447.142C311.749 416.636 308.852 386.51 299.482 357.298C286.875 317.985 263.133 287.703 224.656 269.729C224.407 269.729 224.248 269.328 223.298 268.369C251.182 275.683 272.027 291.315 289.093 312.276C307.426 334.776 316.774 361.022 321.73 389.052C324.898 408.625 326.781 428.378 327.366 448.19C328.068 463.911 327.751 479.699 329.629 495.353H335.288C334.699 489.979 334.586 484.538 334.315 479.163C333.387 461.502 333.228 443.797 332.051 426.136C329.788 390.457 323.813 355.671 304.665 324.586C280.9 285.963 246.52 263.062 200.348 258.134C177.556 255.703 155.986 249.549 137.925 234.631C133.126 230.532 128.799 225.926 125.024 220.894C122.896 218.152 123.937 217.639 126.857 216.992C129.243 216.182 131.835 216.181 134.222 216.989C136.609 217.797 138.653 219.368 140.03 221.452C149.694 233.672 163.568 239.47 178.167 243.751C192.335 247.832 207.002 249.281 221.578 251.177C247.426 254.596 271.443 266.212 289.998 284.269C315.551 308.285 331.983 337.987 344.115 370.232C355.431 400.403 363.376 431.354 365.367 463.599C365.548 466.654 365.367 469.686 365.367 472.764C365.234 480.333 365.522 487.903 366.228 495.442H372.316C371.103 485.173 370.967 474.809 371.909 464.513C374.172 439.805 381.301 416.391 390.807 393.535C398.571 374.937 407.375 356.696 411.63 336.85C416.428 314.551 414.323 293.054 402.577 273.119C397.552 264.556 391.735 256.417 385.964 248.3C372.995 229.97 368.514 209.611 369.804 187.557C370.751 174.198 370.909 160.796 370.279 147.419C369.328 131.809 364.983 117.471 352.761 106.834C334.79 91.2245 313.175 89.7527 291.175 101.995C289.953 102.686 288.912 104.225 286.784 103.422C289.002 96.6762 293.834 91.0661 300.229 87.8127C311.273 81.9955 324.027 80.143 336.306 82.5724C361.656 87.3222 377.046 103.913 381.369 130.293C384.131 147.173 382.863 164.054 381.89 180.956C381.087 194.379 382.829 207.832 387.028 220.627C391.554 234.408 400.2 245.825 408.393 257.443C427.111 283.89 430.665 312.745 423.241 343.473C418.85 361.491 411.449 378.483 404.591 395.631C391.713 427.808 383.542 460.7 386.484 495.553H392.301C389.766 468.437 394.565 441.589 403.618 414.942C410.928 393.691 420.683 373.354 426.976 351.746C426.976 351.3 427.224 350.854 427.36 350.408V281.994C423.399 270.368 417.518 259.467 409.955 249.727C405.589 243.81 401.641 237.604 398.141 231.152C389.744 216.345 387.277 200.245 387.639 183.454C388.023 167.176 389.902 150.897 387.888 134.552C386.054 119.522 381.618 105.563 370.777 94.4134C355.522 78.804 336.419 74.2102 315.076 76.953C312.813 77.2652 310.549 78.4248 307.132 77.5998C319.739 67.2529 333.092 60.8753 348.89 62.5032C366.997 64.3763 380.192 73.9874 389.155 89.4408C395.646 101.277 399.844 114.2 401.536 127.55C403.799 142.557 403.278 157.676 403.414 172.773C403.357 190.702 407.714 208.378 416.111 224.284C419.755 230.974 423.626 237.797 427.428 244.554V232.624L426.636 230.907C415.093 211.529 408.688 190.768 409.254 168.201C409.74 156.763 409.445 145.305 408.371 133.905C406.492 116.49 402.826 99.5869 393.229 84.4234C374.443 54.7209 340.222 47.5181 310.866 67.1859L306.543 70.1296C311.568 61.366 317.181 53.2937 326.053 48.3879C333.91 43.8446 342.751 41.208 351.846 40.6961C360.941 40.1843 370.029 41.8118 378.359 45.4442C401.241 54.7653 415.568 72.2034 423.943 94.6364C425.332 98.3696 426.518 102.173 427.496 106.031V87.7904C423.932 79.4139 419.16 71.5881 413.328 64.5548C396.036 43.7943 374.036 32.9345 346.197 35.7442C344.183 35.9448 342.191 36.2124 338.977 36.5915C340.901 35.1644 341.693 34.3617 342.621 33.9157C345.676 32.1095 348.709 30.2139 351.946 28.6975ZM282.507 377.212C287.119 396.346 289.443 415.946 289.432 435.613C289.432 439.404 287.169 439.761 284.385 440.073C272.846 440.694 261.378 442.245 250.096 444.711C242.327 446.153 234.898 449.003 228.187 453.118C225.154 455.147 224.475 453.921 224.543 451C224.543 448.435 224.543 445.826 224.543 443.239C225.222 424.285 227.349 405.554 234.886 387.848C238.847 378.549 244.415 370.455 253.694 365.371C266.89 358.012 278.976 362.717 282.484 377.212H282.507ZM272.435 344.878C274.319 349.195 275.796 353.674 276.848 358.257C257.225 354.199 242.287 361.29 232.826 378.594C224.52 393.802 221.51 410.393 219.609 427.273C218.538 437.734 218.258 448.258 218.771 458.76C218.918 459.669 218.882 460.598 218.665 461.493C218.447 462.388 218.053 463.233 217.504 463.978C215.851 465.829 213.973 468.014 211.37 467.389C208.767 466.765 209.718 463.799 209.695 461.904C209.288 437.129 210.487 412.511 218.092 388.651C223.434 371.949 231.808 357.432 247.878 348.245C254.043 345.013 260.846 343.135 267.818 342.737C269.719 342.559 271.597 342.759 272.412 344.878H272.435ZM262.612 324.63C264.219 327.774 265.894 330.851 267.523 333.973C268.497 335.824 268.429 337.251 265.894 337.497C236.946 340.262 222.755 359.395 213.679 383.723C205.961 404.439 204.331 426.091 203.878 448.056C203.878 453.698 203.697 459.362 204.037 464.959C204.331 469.642 201.208 469.575 198.107 469.954C194.327 470.422 194.712 467.724 194.576 465.494C194.004 458.82 193.815 452.12 194.01 445.425C194.666 418.666 197.292 392.174 207.59 367.043C213.656 352.214 222.143 339.147 236.086 330.183C242.833 326.105 250.418 323.561 258.289 322.735C259.11 322.51 259.984 322.57 260.766 322.902C261.548 323.235 262.192 323.821 262.589 324.563L262.612 324.63ZM253.808 310.849C257.633 316.647 257.949 316.379 251.092 318.03C230.722 322.913 217.141 335.869 207.522 353.708C196.862 373.443 192.267 394.872 189.891 416.837C188.002 433.368 187.593 450.03 188.669 466.631C188.895 469.887 183.327 474.703 180.068 474.191C178.484 473.923 178.733 472.697 178.733 471.693C178.733 469.865 178.733 468.036 178.733 466.208C178.733 464.379 178.733 462.863 178.733 461.168C177.782 442.593 177.216 423.995 177.827 405.42C178.484 385.351 181.924 365.616 190.977 347.442C201.321 326.548 217.028 311.763 240.771 306.434C246.678 304.984 250.458 305.81 253.785 310.849H253.808ZM225.719 287.703C230.88 286.811 241.02 293.211 242.83 298.116C243.804 300.837 241.314 300.346 240.114 300.547C230.564 302.63 221.517 306.523 213.475 312.009C194.599 325.188 184.051 343.83 178.076 365.259C172.101 386.689 170.856 409.099 171.852 431.488C172.486 446.718 172.916 461.971 172.192 477.223C171.829 484.917 168.774 491.071 161.509 494.706C161.095 494.908 160.663 495.072 160.218 495.197C159.744 495.243 159.267 495.243 158.793 495.197C165.017 476.309 164.451 457.288 163.568 438.178C162.301 411.062 160.286 383.901 165.107 356.942C168.253 339.102 174.025 322.4 186.428 308.463C196.907 296.578 210.306 290.312 225.697 287.703H225.719ZM82.654 173.977C91.5062 168.039 101.398 163.767 111.828 161.378C124.865 158.144 138.015 155.335 151.097 152.28C158.197 150.708 165.092 148.344 171.648 145.233C173.262 144.441 174.998 143.922 176.786 143.695C170.385 148.962 163.418 153.523 156.009 157.297C144.057 163.729 131.74 169.477 119.116 174.512C79.9606 189.988 54.2944 218.174 38.7679 256.127C38.4284 256.952 38.0435 257.755 37.704 258.58C44.1319 226.09 53.1853 194.648 82.6087 173.977H82.654ZM41.3481 432.023C19.5522 403.881 14.7991 372.417 22.7887 338.522C23.6262 334.977 24.7804 331.498 25.7537 327.975C26.7269 324.452 28.017 324.006 30.7104 326.726C38.5404 335.006 44.6186 344.74 48.5907 355.358C51.3422 362.481 53.411 369.842 54.7697 377.345C55.7701 382.339 56.2703 387.418 56.2634 392.509C56.2634 407.605 54.0001 420.093 47.5496 431.577C44.9468 436.059 44.4715 436.059 41.3255 432.023H41.3481ZM57.5082 448.457C49.3829 441.21 49.3602 441.344 54.1359 431.778C63.6872 412.533 63.8683 392.42 59.5906 371.904C55.4034 351.835 46.8027 333.996 31.8194 319.635C30.9928 318.96 30.4367 318.018 30.2501 316.976C30.0635 315.935 30.2587 314.862 30.8009 313.949C33.0642 309.065 35.0333 304.115 37.3193 299.298C39.6053 294.482 39.9901 294.615 43.8604 297.871C57.1235 309.021 66.3353 322.891 73.2838 338.433C80.617 354.801 84.7136 371.882 85.4152 396.054C85.5091 415.424 78.0748 434.095 64.6378 448.234C61.9897 451 60.2696 450.955 57.4857 448.457H57.5082ZM75.7282 461.592C66.9238 455.549 66.9465 455.749 73.4649 447.298C86.4112 430.596 91.5716 411.619 91.0057 390.702C90.41 363.843 82.1505 337.692 67.1727 315.242C61.5377 306.634 54.5821 298.939 46.5538 292.43C43.2946 289.799 43.2267 287.747 45.1505 284.38C48.8624 277.846 53.0043 271.603 57.2141 265.403C59.2059 262.438 60.8807 262.036 63.823 264.4C79.8018 277.318 92.8552 293.392 102.141 311.585C114.137 334.665 121.606 359.015 122.036 385.797C121.561 416.324 110.108 442.124 84.6683 461.413C83.4946 462.549 81.9246 463.201 80.2795 463.234C78.6344 463.267 77.0386 462.68 75.8187 461.592H75.7282ZM91.5716 283.666C85.3003 276.126 78.354 269.155 70.8167 262.839C63.5287 256.729 63.4835 256.551 70.0019 249.46C79.7317 238.447 91.6782 229.548 105.084 223.325C92.2052 241.543 89.2403 261.836 91.6621 283.666H91.5716ZM153.655 250.976C164.836 257.108 177.375 259.74 189.28 263.976C189.981 264.222 190.638 264.578 191.951 265.158C155.737 279.296 142.157 307.281 139.464 342.514C139.056 342.514 138.626 342.514 138.581 342.313C133.058 322.244 129.075 301.93 133.488 280.968C135.506 270.591 140.032 260.847 146.684 252.559C148.721 249.972 150.509 249.17 153.655 250.976ZM141.908 244.576C144.058 246.003 143.809 247.207 142.383 249.036C125.114 270.8 123.462 295.597 127.966 321.62C131.293 340.864 137.427 359.528 139.283 379.085C142.361 412.4 133.24 441.522 108.524 465.226C106.962 466.714 105.29 468.085 103.522 469.329C96.0303 474.681 98.6332 475.016 89.6025 469.909C86.4338 468.148 86.5243 467.144 89.3761 464.981C107.185 451.664 119.72 432.642 124.82 411.195C129.347 392.977 128.192 374.848 124.594 356.741C120.814 339.262 114.647 322.369 106.261 306.523C94.9439 284.001 93.4275 260.966 103.748 237.641C106.271 232.054 109.713 226.916 113.933 222.433C114.364 221.835 114.925 221.338 115.575 220.979C116.225 220.621 116.947 220.409 117.69 220.359C117.917 220.694 118.415 221.452 118.958 222.21C125.213 230.918 132.983 238.468 141.908 244.509V244.576ZM380.622 402.9C376.632 413.322 373.306 423.98 370.664 434.81C370.415 435.769 369.917 436.661 369.034 438.846C367.427 431.22 366.16 424.887 364.756 418.576C357.4 385.284 346.106 353.396 328.701 323.85C312.337 296.087 291.583 272.428 262.023 257.465C245.66 249.17 228.073 245.513 209.967 243.662C192.177 241.878 174.659 238.845 158.951 229.636C153.667 226.708 148.911 222.941 144.873 218.486C142.859 216.256 143.357 214.918 146.344 214.784C154.515 214.405 162.708 214.071 170.902 213.848C171.991 213.901 173.039 214.274 173.912 214.918C191.317 227.227 211.483 231.999 232.102 234.987C285.54 242.636 323.745 271.536 350.859 316.335C365.707 340.864 374.783 367.489 380.871 395.229C381.591 397.713 381.504 400.356 380.622 402.789V402.9ZM396.33 365.125C392.912 372.752 389.766 380.49 386.507 388.183L385.307 388.049C383.474 381.471 381.731 374.848 379.762 368.292C369.441 333.996 353.213 302.955 327.909 276.865C303.207 251.124 270.326 234.462 234.705 229.636C219.993 227.406 205.44 224.529 191.702 218.486C188.088 216.939 184.664 214.994 181.494 212.688C190.957 210.956 200.266 208.488 209.333 205.307C209.938 205.146 210.57 205.104 211.191 205.185C211.813 205.265 212.412 205.466 212.954 205.775C225.516 211.618 239.005 214.517 252.472 217.304C304.008 227.941 340.335 258.825 368.106 301.149C379.237 318.772 388.7 337.366 396.375 356.696C396.997 357.998 397.316 359.421 397.308 360.86C397.3 362.299 396.966 363.718 396.33 365.014V365.125ZM406.017 335.066C404.741 341.013 402.946 346.84 400.653 352.482C396.783 342.893 393.161 334.353 388.951 326.102C373.38 295.53 353.847 267.968 326.845 245.981C304.982 228.142 279.723 217.661 252.314 211.551C242.466 209.531 232.735 206.992 223.162 203.947C221.6 203.412 219.314 203.166 218.975 201.516C218.59 199.487 221.238 199.42 222.415 198.417C223.492 197.82 224.535 197.165 225.539 196.454C231.219 190.701 237.851 190.657 245.524 191.66C260.371 193.578 275.468 192.953 290.27 196.12C313.424 201.026 331.847 212.889 343.662 233.137C355.895 254.478 370.142 274.636 386.213 293.344C393.243 301.294 399.221 310.09 404.003 319.524C406.608 324.238 407.327 329.744 406.017 334.955V335.066ZM390.536 265.091C399.589 277.891 406.379 291.605 407.76 307.46C407.873 308.664 407.986 309.868 408.077 311.095C408.077 311.853 408.077 312.589 408.077 313.324C397.643 295.173 382.433 280.946 370.211 264.489C362.855 254.588 357.129 243.773 350.927 233.27C333.862 204.281 307.426 190.59 274.291 187.914C264.581 187.133 254.849 186.576 245.116 185.84C243.804 185.84 241.97 185.996 241.45 184.524C240.929 183.053 242.649 182.562 243.396 181.648C246.836 177.322 250.345 173.085 253.74 168.714C255.03 167.019 256.139 165.659 258.651 166.618C276.056 173.152 294.683 175.538 312.269 181.402C333.816 188.583 352.421 199.688 364.711 219.311C365.623 220.549 366.383 221.889 366.974 223.303C372.135 238.555 381.211 251.823 390.536 264.98V265.091ZM364.19 208.072C358.799 202.224 352.891 196.858 346.536 192.039C331.938 181.358 315.189 175.649 297.897 171.279C287.26 168.603 276.464 166.462 266.052 163.006C263.97 162.314 260.417 162.337 260.439 159.884C260.484 158.263 261.024 156.694 261.989 155.381C262.955 154.068 264.3 153.072 265.849 152.525C272.504 150.03 279.469 148.425 286.558 147.753C309.78 145.523 329.358 153.462 346.378 168.514C348.641 170.543 350.905 172.773 353.01 174.913C360.094 181.737 365.571 189.185 363.76 199.799C363.653 202.527 363.797 205.259 364.19 207.961V208.072ZM364.53 173.263C364.372 174.557 364.983 176.43 363.421 176.898C361.859 177.366 361.158 175.516 360.343 174.512C350.38 162.543 337.609 153.145 323.134 147.129C306.498 140.261 289.432 140.149 272.141 144.319C270.941 144.609 269.741 144.832 268.067 145.211C268.715 141.374 270.474 137.804 273.132 134.928C275.79 132.053 279.234 129.994 283.05 128.999C306.815 121.373 328.792 122.934 348.551 139.257C352.19 142.555 355.523 146.167 358.51 150.05C364.281 156.762 365.526 164.656 364.53 173.152V173.263ZM313.016 100.011C333.884 96.5319 358.872 109.688 363.376 139.056C363.954 141.028 364.244 143.07 364.236 145.122C361.248 142.58 357.763 139.881 354.526 136.893C334.156 118.251 310.414 115.218 284.498 122.622C282.371 123.224 279.564 125.654 278.229 123.737C276.894 121.819 278.998 118.63 280.787 117.047C289.908 108.261 300.296 102.04 313.016 99.8989V100.011ZM278.568 105.786C270.737 122.689 264.196 140.193 254.69 156.36C235.701 188.65 207.409 205.686 169.702 207.983C162.245 208.675 154.741 208.742 147.272 208.184C153.678 206.088 160.038 203.724 166.533 201.94C206.3 190.947 234.977 166.462 255.437 131.72C261.48 121.44 267.139 110.915 272.865 100.501C273.136 99.9882 273.431 99.4307 273.68 98.8733C274.359 97.2008 274.676 95.4838 272.729 94.4134C270.783 93.3431 269.47 94.5693 268.587 96.1749C265.305 102.218 262.091 108.306 258.787 114.349C250.293 130.474 239.835 145.518 227.643 159.148C209.424 178.883 186.405 190.367 160.83 197.725C143.21 202.47 125.876 208.188 108.909 214.851C85.3926 224.507 67.7612 241.008 53.0722 260.966C47.3459 268.726 42.5477 277.088 37.3646 285.227C39.7864 275.014 44.4035 265.693 49.0207 256.238C64.8641 224.418 91.7526 206.578 124.956 196.209C138.988 191.749 152.998 187.512 166.624 181.938C194.304 170.788 216.032 152.101 234.524 129.334C248.987 111.494 261.277 91.938 276.328 74.4332C292.782 55.3228 311.183 38.5094 334.586 27.7835C338.877 25.7119 343.452 24.2694 348.166 23.5019C313.469 41.7204 294.14 72.1364 278.568 105.674V105.786ZM417.605 0.110109H402.622C411.536 2.99756 419.936 7.24114 427.519 12.6869V5.66258C424.313 3.59947 420.996 1.70863 417.583 -0.00149621L417.605 0.110109Z" fill="#D6B283"/>
</svg>
