<svg width="338" height="429" viewBox="0 0 338 429" fill="none" xmlns="http://www.w3.org/2000/svg">
<path d="M182.102 0L337.924 425.483H270.567C259.224 393.48 246.068 371.223 231.1 358.711C224.477 352.403 216.466 347.737 207.712 345.087C198.669 342.362 189.266 341.021 179.822 341.111C169.041 340.886 158.378 343.401 148.833 348.42C139.863 353.344 131.603 359.46 124.276 366.604C116.773 374 109.687 381.808 103.052 389.992C96.7265 397.676 89.8266 404.869 82.412 411.508C75.8444 417.43 68.3609 422.248 60.2522 425.775C51.8795 429.034 42.6262 429.241 34.1161 426.36C25.7663 424.512 18.1666 420.193 12.3071 413.964C6.87512 407.753 3.20123 400.204 1.66563 392.096C-0.177872 382.284 -0.493279 372.245 0.730278 362.336C2.18532 350.132 4.62959 338.067 8.03897 326.26C12.3508 310.537 17.7228 295.124 24.1181 280.128C31.6022 261.885 39.9049 242.395 49.0261 221.658C58.0889 200.784 67.3269 179.385 76.6236 157.342C85.9202 135.299 94.1643 114.366 100.596 94.5451C106.731 76.7079 111.597 58.459 115.155 39.9348C118.344 26.9315 118.041 13.3167 114.278 0.467856L182.102 0ZM248.875 365.376L124.452 27.8901C122.037 48.1754 117.771 68.197 111.705 87.7043C104.806 111.092 97.0099 134.967 88.3175 159.329C79.625 183.692 71.2249 207.079 63.1171 229.493C55.0483 251.945 48.9871 270.46 44.9332 285.039C39.3791 304.021 36.7178 323.733 37.0396 343.508C37.8582 359.49 44.933 369.235 58.2641 372.743C66.563 375.21 75.496 374.35 83.1721 370.346C91.2409 366.312 99.953 361.517 109.25 356.079C119.265 350.221 129.612 344.95 140.238 340.293C152.899 334.949 166.552 332.358 180.29 332.692C193.631 332.356 206.884 334.951 219.114 340.293C230.906 346.139 241.116 354.744 248.875 365.376Z" fill="#D6B283"/>
</svg>
