<svg width="130" height="459" viewBox="0 0 130 459" fill="none" xmlns="http://www.w3.org/2000/svg">
<path d="M128.691 201.486C128.691 220.547 128.691 240.134 129.276 260.365C129.861 280.595 129.276 300.241 127.756 319.244C126.51 337.369 123.673 355.349 119.278 372.977C115.401 388.972 108.385 404.036 98.638 417.297C88.6488 430.398 75.4891 440.74 60.3988 447.35C41.263 455.217 20.679 458.943 0 458.284V450.391C6.73328 450.68 13.4418 449.405 19.5996 446.666C25.7574 443.927 31.197 439.798 35.491 434.604C44.6401 423.244 51.3659 410.131 55.2538 396.072C59.7717 380.417 62.6134 364.325 63.7316 348.069C64.9789 331.308 65.5831 316.846 65.5441 304.685V0H128.691V201.486Z" fill="#D6B283"/>
</svg>
