<svg width="383" height="437" viewBox="0 0 383 437" fill="none" xmlns="http://www.w3.org/2000/svg">
<path d="M0 0H63.147V425.483H0V0ZM298.662 0H310.766L100.743 186.342C95.4806 190.786 96.5331 194.937 103.783 198.796C111.034 202.655 122.61 208.21 138.397 215.46C155.782 223.568 176.208 234.404 199.674 247.969C224.944 262.862 248.225 280.897 268.96 301.644C274.263 306.833 279.042 312.532 283.226 318.659C288.664 326.377 294.92 334.621 301.118 343.567C307.316 352.513 314.274 361.108 321.173 370.229C327.289 378.38 334.204 385.902 341.813 392.681C347.456 398 354.038 402.223 361.225 405.135C363.876 406.289 366.821 406.588 369.65 405.99C372.48 405.393 375.052 403.929 377.011 401.803L382.449 407.299C373.132 417.269 362.025 425.401 349.706 431.271C340.76 435.296 330.962 437.062 321.173 436.416C310.053 435.133 299.528 430.712 290.827 423.67C281.142 416.021 272.284 407.379 264.399 397.885C256.096 387.945 248.203 377.518 240.719 366.604C233.879 356.457 226.481 346.697 218.559 337.369C202.201 318.174 184.769 299.922 166.346 282.7C148.571 266.173 132.979 251.419 119.57 238.439C108.728 228.253 99.2371 216.718 91.3293 204.117C88.8097 200.216 87.8783 195.498 88.7263 190.932C89.5744 186.365 92.1377 182.297 95.8901 179.56L298.662 0Z" fill="#D6B283"/>
</svg>
