<svg width="77" height="121" viewBox="0 0 77 121" fill="none" xmlns="http://www.w3.org/2000/svg">
<g clip-path="url(#clip0_203_94)">
<path d="M0.003479 82.2236H3.73798V107.015H0.003479V82.2236ZM17.6663 82.2236H18.3821L5.96139 93.0812C5.65019 93.3401 5.71243 93.582 6.14121 93.8068C6.56999 94.0317 7.25464 94.3553 8.18827 94.7778C9.21641 95.2502 10.4244 95.8816 11.8121 96.672C13.3066 97.5397 14.6835 98.5906 15.9097 99.7994C16.2234 100.102 16.506 100.434 16.7534 100.791C17.075 101.24 17.445 101.721 17.8115 102.242C18.1781 102.763 18.5896 103.264 18.9976 103.796C19.3593 104.271 19.7682 104.709 20.2182 105.104C20.552 105.414 20.9412 105.66 21.3663 105.829C21.5231 105.897 21.6972 105.914 21.8645 105.879C22.0319 105.845 22.184 105.759 22.2999 105.635L22.6214 105.956C22.0704 106.536 21.4136 107.01 20.685 107.352C20.1559 107.587 19.5765 107.69 18.9976 107.652C18.34 107.577 17.7175 107.32 17.203 106.909C16.6302 106.464 16.1063 105.96 15.64 105.407C15.149 104.828 14.6822 104.22 14.2396 103.584C13.835 102.993 13.3975 102.424 12.929 101.881C11.9616 100.763 10.9307 99.6991 9.84114 98.6956C8.78995 97.7326 7.86785 96.873 7.07484 96.1167C6.43365 95.5231 5.87234 94.8511 5.40468 94.1168C5.25567 93.8895 5.20059 93.6146 5.25074 93.3486C5.30089 93.0825 5.45249 92.8454 5.67441 92.686L17.6663 82.2236Z" fill="#D6B283"/>
<path d="M35.3948 82.2236L44.6101 107.015H40.6266C39.9558 105.15 39.1777 103.854 38.2925 103.124C37.9008 102.757 37.4271 102.485 36.9094 102.331C36.3746 102.172 35.8185 102.094 35.26 102.099C34.6224 102.086 33.9918 102.232 33.4273 102.525C32.8968 102.812 32.4083 103.168 31.975 103.584C31.5312 104.015 31.1122 104.47 30.7198 104.947C30.3457 105.395 29.9376 105.814 29.4991 106.201C29.1107 106.546 28.6682 106.827 28.1886 107.032C27.6934 107.222 27.1462 107.234 26.6429 107.066C26.1491 106.959 25.6997 106.707 25.3531 106.344C25.0319 105.982 24.8146 105.542 24.7238 105.07C24.6148 104.498 24.5961 103.913 24.6685 103.336C24.7545 102.625 24.8991 101.922 25.1007 101.234C25.3557 100.318 25.6734 99.4195 26.0516 98.5457C26.4943 97.4828 26.9853 96.3472 27.5247 95.1389C28.0607 93.9227 28.607 92.6758 29.1568 91.3914C29.7066 90.107 30.1942 88.8874 30.5745 87.7325C30.9374 86.6931 31.2251 85.6298 31.4356 84.5505C31.6241 83.7928 31.6062 82.9995 31.3837 82.2509L35.3948 82.2236ZM39.3437 103.513L31.9854 83.8487C31.8426 85.0306 31.5902 86.1972 31.2315 87.3339C30.8235 88.6966 30.3625 90.0877 29.8484 91.5072C29.3343 92.9267 28.8375 94.2894 28.358 95.5954C27.8809 96.9036 27.5224 97.9824 27.2826 98.8319C26.9542 99.9379 26.7968 101.086 26.8158 102.239C26.8642 103.17 27.2826 103.738 28.071 103.942C28.5618 104.086 29.0901 104.036 29.5441 103.802C30.0213 103.567 30.5365 103.288 31.0863 102.971C31.6786 102.63 32.2905 102.323 32.919 102.051C33.6677 101.74 34.4751 101.589 35.2876 101.608C36.0766 101.589 36.8604 101.74 37.5837 102.051C38.2811 102.392 38.8848 102.893 39.3437 103.513Z" fill="#D6B283"/>
<path d="M53.7389 93.9635C53.7389 95.0742 53.7389 96.2155 53.7735 97.3942C53.8081 98.573 53.7735 99.7177 53.6836 100.825C53.6099 101.881 53.4421 102.929 53.1822 103.956C52.9529 104.888 52.538 105.765 51.9615 106.538C51.3708 107.301 50.5925 107.904 49.7001 108.289C48.5684 108.748 47.3511 108.965 46.1281 108.926V108.466C46.5263 108.483 46.9231 108.409 47.2872 108.249C47.6514 108.09 47.9731 107.849 48.227 107.547C48.7681 106.885 49.1659 106.121 49.3958 105.301C49.663 104.389 49.8311 103.452 49.8972 102.504C49.971 101.528 50.0067 100.685 50.0044 99.9766V82.2236H53.7389V93.9635Z" fill="#D6B283"/>
<path d="M67.7778 82.2236L77.0035 107.015H73.02C72.3492 105.15 71.5711 103.854 70.6859 103.124C70.2992 102.759 69.8316 102.487 69.3201 102.331C68.7853 102.172 68.2292 102.094 67.6707 102.099C67.033 102.086 66.4025 102.232 65.838 102.525C65.3075 102.812 64.8189 103.168 64.3857 103.584C63.9417 104.016 63.5216 104.471 63.127 104.947C62.7541 105.395 62.3472 105.814 61.9098 106.201C61.5214 106.546 61.0788 106.827 60.5993 107.032C60.1041 107.222 59.5569 107.234 59.0536 107.066C58.5592 106.958 58.1089 106.706 57.7604 106.344C57.4403 105.982 57.2241 105.542 57.1345 105.07C57.0237 104.498 57.0051 103.913 57.0792 103.336C57.1636 102.624 57.3081 101.921 57.5114 101.234C57.7664 100.318 58.0841 99.4195 58.4623 98.5457C58.9049 97.4828 59.396 96.3472 59.9354 95.1389C60.4714 93.9227 61.0177 92.6758 61.5675 91.3914C62.1173 90.107 62.6049 88.8874 62.9852 87.7325C63.3481 86.6931 63.6358 85.6298 63.8462 84.5505C64.0348 83.7928 64.0169 82.9995 63.7944 82.2509L67.7778 82.2236ZM71.7267 103.513L64.3684 83.8487C64.2301 85.0302 63.9824 86.1968 63.6284 87.3339C63.2204 88.6966 62.7593 90.0877 62.2452 91.5072C61.7312 92.9267 61.2344 94.2894 60.7549 95.5954C60.2777 96.9036 59.9193 97.9824 59.6795 98.8319C59.351 99.9379 59.1937 101.086 59.2127 102.239C59.2611 103.17 59.6795 103.738 60.4679 103.942C60.9587 104.086 61.487 104.036 61.941 103.802C62.4181 103.567 62.9334 103.288 63.4832 102.971C64.0755 102.63 64.6874 102.323 65.3158 102.051C66.0646 101.74 66.872 101.589 67.6845 101.608C68.4735 101.589 69.2572 101.74 69.9805 102.051C70.6709 102.395 71.2683 102.896 71.7233 103.513H71.7267Z" fill="#D6B283"/>
<path d="M74.7109 68.6235C74.2302 70.9379 74.0409 73.3019 74.1473 75.662H75.0394C75.0083 75.185 74.9979 74.7081 75.0014 74.2277C75.0799 70.8887 75.671 67.5807 76.7545 64.4161C76.8064 64.2662 76.8548 64.1129 76.9101 63.963V61.2068C76.0034 63.6258 75.2686 66.104 74.7109 68.6235ZM65.3573 4.38448C68.6423 2.88888 71.8166 2.76624 74.8215 5.11013C75.5795 5.70895 76.2746 6.38119 76.8963 7.11675V5.77449C73.7185 2.57548 69.8145 1.34561 65.1395 2.48349C60.7964 3.53279 57.4457 6.16967 54.4546 9.29713C51.9408 11.9374 49.9214 14.9661 47.7394 17.8653C45.5575 20.7645 43.0471 23.4763 39.8244 25.3909C37.0857 27.0194 34.0774 27.9869 31.0517 28.9374C28.0883 29.8675 25.2183 31.0122 22.8047 33.0256C22.2376 33.4992 21.712 34.0102 21.1691 34.5076C22.5385 32.3169 24.4292 30.488 26.6775 29.1793C28.8456 27.9222 31.1728 26.9785 33.4584 25.9769C36.948 24.4503 40.1079 22.2784 42.767 19.5789C45.4365 16.8875 47.7256 13.8895 50.0735 10.9358C52.8122 7.49153 55.7721 4.26187 59.7279 2.0781C61.2542 1.21047 62.8701 0.505793 64.5482 -0.0239258H61.8095C59.4527 1.02834 57.2593 2.40478 55.2949 4.06426C52.8087 6.17989 50.402 8.38753 48.0334 10.6394C45.8895 12.6835 43.6661 14.6322 41.1384 16.213C38.0379 18.2 34.3533 19.1111 30.6679 18.8022C28.8545 18.6073 27.0228 18.6531 25.2218 18.9384C22.2964 19.4972 20.0349 21.0575 18.2611 23.4014C16.1241 26.2392 15.1766 29.4996 14.6165 32.9166C14.2707 34.988 14.1012 37.0763 13.8799 39.1613C13.8419 39.4816 13.7831 39.7984 13.7105 40.2787C13.4097 39.1715 13.4754 38.1972 13.4304 37.233C13.1953 32.2455 13.6932 27.3533 15.7679 22.737C17.1511 19.6709 19.0564 17.0783 22.165 15.5146C23.7909 14.6961 25.5762 14.2314 27.4002 14.1518C29.1015 14.0701 30.8028 14.1825 32.504 14.2336C35.9101 14.3224 39.2705 13.4462 42.1861 11.7091C44.6516 10.2987 46.8266 8.50333 49.0293 6.7386C52.1967 4.19371 55.5162 1.90774 59.4236 0.575678C60.1925 0.282653 60.995 0.0835766 61.813 -0.0171055H58.4623C55.2852 1.21812 52.3275 2.94305 49.7001 5.09312C47.2795 7.02479 44.8902 9.02799 42.2345 10.6599C39.5789 12.2917 36.8126 13.307 33.6866 13.3138C31.6119 13.3138 29.5372 13.2252 27.4625 13.2831C24.8175 13.355 22.2572 14.2176 20.1214 15.7564C17.4519 17.6302 15.8233 20.2466 14.6407 23.1697C12.5175 28.4264 12.2685 33.9114 12.7008 39.4713C12.884 41.8186 13.1019 44.1693 12.7872 46.5166C12.5175 48.5028 12.1233 50.4685 11.8536 52.4547C11.3937 55.8854 11.4802 59.2956 12.5141 62.6309C13.835 66.9609 16.5356 70.3678 20.1871 73.0217C21.4527 73.9415 22.7736 74.783 24.0703 75.662H25.6575C23.9285 74.4083 22.0301 73.376 20.3392 72.0507C16.4388 68.9846 13.7866 65.1928 12.8564 60.3006C12.3589 57.4465 12.3683 54.5289 12.8841 51.678C13.7416 46.3633 14.6718 41.0589 15.1662 35.6932C15.4083 33.0427 15.8336 30.4194 16.8157 27.9154C18.064 24.73 19.9589 22.0795 23.154 20.5158C24.8379 19.6914 26.6429 19.5619 28.4825 19.5959C30.5365 19.6368 32.5905 19.8242 34.6445 19.5585C37.9848 19.1258 40.8375 17.6268 43.507 15.7122C44.9628 14.6901 46.2733 13.4466 47.7083 12.3667C46.3494 14.2336 45.0077 16.1482 43.2615 17.6745C40.6335 19.9775 37.6425 21.7048 34.1673 22.5054C32.3069 22.9346 30.4293 23.3196 28.5724 23.7693C24.4437 24.7675 21.3109 27.0671 19.2915 30.7737C18.2873 32.5728 17.5225 34.4919 17.0162 36.4835C15.678 41.9345 14.8032 47.4569 13.9041 52.9726C12.7285 60.1882 15.1974 66.0275 21.2867 70.3133C23.2127 71.676 25.3117 72.7628 27.2515 74.0982C27.9506 74.5773 28.6182 75.0996 29.2502 75.662H30.54C29.614 74.8076 28.6346 74.0111 27.6077 73.2772C27.3242 73.0796 27.3311 72.8854 27.6077 72.6742C30.0282 70.8822 31.6776 68.5111 32.8291 65.7481C32.9778 68.4736 32.9017 71.1991 32.1029 73.8257C31.9055 74.4736 31.5904 75.0807 31.1728 75.6177C31.1728 75.6381 31.1416 75.662 31.1244 75.679H32.2136C32.3381 75.4439 32.4556 75.2259 32.5594 74.9977C33.2994 73.4782 33.5276 71.8395 33.6451 70.1838C33.7247 69.0221 33.7835 67.857 33.7869 66.6918C33.8077 62.665 33.9252 58.6381 33.7178 54.6078C33.5483 51.201 34.1396 47.9066 36.159 45.0108C37.4783 43.1272 39.4593 41.792 41.7193 41.2633C41.9805 41.1909 42.2538 41.171 42.5229 41.205C42.792 41.2389 43.0515 41.326 43.2857 41.4609C44.0983 41.8997 44.8867 42.3807 45.6474 42.902C45.6474 43.0928 45.5645 43.1337 45.478 43.1507C40.3327 44.2443 37.6459 47.6988 36.3354 52.4411C35.7929 54.4714 35.5038 56.5593 35.4744 58.6585C35.3914 62.1062 35.6127 65.5505 35.7026 68.9982C35.7544 70.8856 35.7026 72.7696 35.2081 74.6161C35.1187 74.991 34.9605 75.3466 34.7413 75.6654H37.6943C38.0274 75.3227 38.2945 74.9233 38.4827 74.4866C38.6591 74.0652 38.9462 73.6976 39.3145 73.4216C39.6827 73.1456 40.1189 72.9711 40.5782 72.9161C41.415 72.7662 42.2622 72.6538 43.1059 72.5447C43.6367 72.4931 44.1509 72.3338 44.6162 72.077C45.0815 71.8202 45.4879 71.4715 45.8099 71.0526C46.3171 70.3718 47.0034 69.8405 47.7948 69.5161C50.1531 68.5724 52.6358 68.2487 55.1428 68.1227C55.6407 68.0988 55.8343 68.3066 55.7998 68.7836C55.741 69.8295 55.7998 70.8788 55.6753 71.9247C55.5266 73.4237 55.7341 74.6501 56.3219 75.6722H57.3593C57.1078 75.3568 56.9168 74.9989 56.7956 74.6161C56.5473 73.7623 56.4664 72.8697 56.557 71.986C56.9685 66.8179 56.7092 61.6804 55.4436 56.6553C54.1919 51.6916 51.9857 47.2048 48.068 43.6719C47.985 43.597 47.9123 43.5084 47.698 43.287C48.1014 43.3906 48.4737 43.588 48.7837 43.8627C52.3592 46.4383 54.7036 49.8928 56.1836 53.9605C57.3018 57.182 57.9741 60.5373 58.1822 63.9357C58.3793 66.4499 58.362 68.9642 58.3344 71.4784C58.3344 72.8411 58.3793 74.2039 58.4623 75.679H59.3683C59.3683 75.6211 59.3683 75.5632 59.351 75.5053C59.0882 73.1205 59.2542 70.7085 59.2403 68.3135C59.2161 63.6529 58.7735 59.0503 57.342 54.5874C55.4159 48.5812 51.7886 43.9547 45.9102 41.2088C45.8722 41.2088 45.848 41.1475 45.7028 41.001C49.9629 42.1184 53.1476 44.5066 55.7548 47.709C58.5557 51.1465 59.9838 55.1563 60.7411 59.4387C61.2251 62.4289 61.5127 65.4468 61.6021 68.4736C61.7093 70.8754 61.6609 73.2874 61.9479 75.679H62.8123C62.7224 74.858 62.7052 74.0267 62.6637 73.2057C62.5219 70.5075 62.4977 67.8024 62.3179 65.1042C61.9721 59.6533 61.0592 54.3387 58.1338 49.5896C54.5031 43.689 49.2506 40.1902 42.1965 39.4373C38.7144 39.0659 35.419 38.1256 32.6597 35.8465C31.9265 35.2203 31.2655 34.5166 30.6887 33.7479C30.3636 33.3288 30.5227 33.2505 30.9687 33.1517C31.3333 33.0279 31.7293 33.0277 32.094 33.1512C32.4586 33.2746 32.7709 33.5146 32.9812 33.833C34.4577 35.7 36.5774 36.5858 38.8077 37.2399C40.9724 37.8633 43.2131 38.0848 45.44 38.3743C49.3891 38.8968 53.0582 40.6714 55.8931 43.43C59.7971 47.0992 62.3075 51.6371 64.1609 56.5633C65.8898 61.1728 67.1036 65.9014 67.4079 70.8277C67.4355 71.2944 67.4079 71.7578 67.4079 72.2279C67.3875 73.3843 67.4314 74.5409 67.5393 75.6926H68.4694C68.2842 74.1238 68.2633 72.5404 68.4072 70.9674C68.753 67.1926 69.8422 63.6155 71.2945 60.1235C72.4806 57.2822 73.8257 54.4954 74.4758 51.4633C75.2088 48.0565 74.8872 44.7723 73.0926 41.7266C72.325 40.4184 71.4363 39.1749 70.5545 37.9348C68.5732 35.1344 67.8885 32.024 68.0856 28.6547C68.2303 26.6137 68.2545 24.5662 68.1582 22.5224C68.013 20.1376 67.3491 17.947 65.4818 16.322C62.7363 13.9372 59.434 13.7123 56.0729 15.5827C55.8862 15.6883 55.7272 15.9234 55.4021 15.8007C55.7409 14.7701 56.4791 13.913 57.4561 13.416C59.1435 12.5272 61.092 12.2442 62.9679 12.6154C66.8408 13.341 69.1921 15.8757 69.8526 19.906C70.2744 22.4849 70.0808 25.0639 69.9321 27.6463C69.8095 29.697 70.0757 31.7523 70.717 33.707C71.4086 35.8124 72.7295 37.5567 73.9813 39.3317C76.8409 43.3721 77.3838 47.7806 76.2496 52.4752C75.5788 55.2279 74.4481 57.8239 73.4004 60.4437C71.4328 65.3597 70.1845 70.3848 70.6341 75.7097H71.5227C71.1355 71.567 71.8685 67.4652 73.2517 63.394C74.3686 60.1473 75.8589 57.0403 76.8202 53.7391C76.8202 53.671 76.8582 53.6028 76.879 53.5347V43.0826C76.2738 41.3064 75.3754 39.6409 74.2199 38.1529C73.5528 37.2489 72.9496 36.3007 72.4148 35.315C71.132 33.0529 70.7551 30.5931 70.8104 28.0278C70.8692 25.5408 71.1562 23.0539 70.8484 20.5567C70.5684 18.2605 69.8906 16.1278 68.2343 14.4244C65.9037 12.0396 62.9852 11.3378 59.7245 11.7568C59.3787 11.8045 59.0329 11.9817 58.5107 11.8557C60.4368 10.2749 62.4769 9.30053 64.8905 9.54923C67.6568 9.8354 69.6728 11.3038 71.0421 13.6647C72.0337 15.473 72.6751 17.4474 72.9335 19.4869C73.2793 21.7797 73.1998 24.0895 73.2205 26.396C73.2118 29.1352 73.8774 31.8356 75.1604 34.2657C75.7171 35.2878 76.3084 36.3302 76.8893 37.3625V35.5399L76.7683 35.2775C75.0048 32.317 74.0262 29.1453 74.1127 25.6976C74.187 23.95 74.1419 22.1995 73.9778 20.4579C73.6908 17.7971 73.1306 15.2148 71.6645 12.8982C68.7945 8.36028 63.5661 7.25984 59.0813 10.2647L58.4208 10.7144C59.1885 9.3755 60.046 8.14223 61.4015 7.39273C62.6018 6.69861 63.9525 6.29579 65.342 6.2176C66.7315 6.1394 68.12 6.38805 69.3927 6.943C72.8886 8.36705 75.0774 11.0312 76.3568 14.4585C76.5691 15.0288 76.7504 15.6099 76.8997 16.1993V13.4125C76.3553 12.1328 75.6262 10.9372 74.7351 9.86267C72.0933 6.69092 68.7322 5.03179 64.479 5.46105C64.1713 5.49171 63.867 5.53259 63.376 5.59051C63.6699 5.37247 63.7909 5.24984 63.9327 5.1817C64.3995 4.90575 64.8629 4.61614 65.3573 4.38448ZM54.7486 57.6297C55.4532 60.553 55.8083 63.5475 55.8067 66.5521C55.8067 67.1313 55.4609 67.1858 55.0356 67.2335C53.2726 67.3284 51.5206 67.5654 49.7969 67.9421C48.61 68.1623 47.4751 68.5978 46.4497 69.2265C45.9863 69.5365 45.8826 69.3491 45.893 68.9028C45.893 68.5111 45.893 68.1124 45.893 67.7173C45.9967 64.8215 46.3217 61.9597 47.4732 59.2547C48.0783 57.8341 48.929 56.5974 50.3467 55.8207C52.3626 54.6964 54.2091 55.4152 54.7451 57.6297H54.7486ZM53.2098 52.6898C53.4976 53.3494 53.7233 54.0336 53.8841 54.7339C50.8861 54.1138 48.6039 55.1972 47.1585 57.8409C45.8895 60.1643 45.4296 62.699 45.1391 65.278C44.9756 66.8761 44.9328 68.484 45.0112 70.0884C45.0337 70.2273 45.0282 70.3692 44.9949 70.506C44.9617 70.6428 44.9014 70.7718 44.8175 70.8856C44.5651 71.1684 44.2781 71.5022 43.8805 71.4069C43.4828 71.3115 43.628 70.8584 43.6246 70.5688C43.5623 66.7838 43.7456 63.0227 44.9074 59.3774C45.7235 56.8257 47.0029 54.6078 49.458 53.2042C50.4 52.7105 51.4392 52.4235 52.5044 52.3627C52.7949 52.3355 53.0819 52.3661 53.2064 52.6898H53.2098ZM51.7091 49.5964C51.9546 50.0768 52.2105 50.5469 52.4595 51.0238C52.6081 51.3066 52.5978 51.5247 52.2105 51.5621C47.7879 51.9846 45.6198 54.9076 44.2332 58.6245C43.054 61.7894 42.8051 65.0974 42.7359 68.4531C42.7359 69.3151 42.7083 70.1804 42.7601 71.0355C42.8051 71.751 42.3279 71.7407 41.8542 71.7986C41.2767 71.8702 41.3355 71.458 41.3147 71.1173C41.2273 70.0977 41.1984 69.074 41.2283 68.0511C41.3285 63.963 41.7297 59.9156 43.303 56.0762C44.2297 53.8106 45.5264 51.8142 47.6565 50.4447C48.6873 49.8218 49.8461 49.433 51.0486 49.3068C51.1741 49.2726 51.3076 49.2816 51.4271 49.3324C51.5466 49.3832 51.6449 49.4728 51.7056 49.5862L51.7091 49.5964ZM50.364 47.491C50.9484 48.3767 50.9968 48.3359 49.949 48.588C46.8369 49.3341 44.7622 51.3134 43.2926 54.0389C41.664 57.0539 40.962 60.3279 40.5989 63.6836C40.3104 66.2091 40.2479 68.7547 40.4122 71.291C40.4468 71.7884 39.5962 72.5243 39.0982 72.4459C38.8562 72.405 38.8942 72.2177 38.8942 72.0644C38.8942 71.785 38.8942 71.5057 38.8942 71.2263C38.8942 70.9469 38.8942 70.7153 38.8942 70.4564C38.749 67.6185 38.6625 64.7772 38.7559 61.9393C38.8562 58.8732 39.3818 55.8581 40.7649 53.0816C42.3452 49.8894 44.7449 47.6307 48.3722 46.8164C49.2748 46.595 49.8522 46.721 50.3605 47.491H50.364ZM46.0728 43.9547C46.8611 43.8184 48.4103 44.7962 48.6869 45.5457C48.8356 45.9613 48.4552 45.8864 48.272 45.917C46.8129 46.2352 45.4306 46.83 44.202 47.6681C41.3182 49.6816 39.7068 52.5297 38.7939 55.8036C37.881 59.0776 37.6909 62.5014 37.843 65.9219C37.9398 68.2487 38.0055 70.579 37.8949 72.9093C37.8396 74.0846 37.3727 75.0249 36.2628 75.5802C36.1995 75.6111 36.1335 75.6362 36.0657 75.6552C35.9932 75.6623 35.9202 75.6623 35.8478 75.6552C36.7987 72.7696 36.7123 69.8636 36.5774 66.9439C36.3838 62.8012 36.076 58.6517 36.8126 54.5329C37.2932 51.8074 38.175 49.2557 40.0699 47.1265C41.6709 45.3106 43.7179 44.3533 46.0693 43.9547H46.0728ZM24.2155 26.5799C25.5679 25.6728 27.0791 25.0202 28.6727 24.6551C30.6644 24.1611 32.6735 23.7318 34.6721 23.2651C35.7568 23.0249 36.8102 22.6637 37.8119 22.1885C38.0584 22.0676 38.3237 21.9881 38.5968 21.9535C37.6189 22.7582 36.5544 23.4551 35.4225 24.0316C33.5966 25.0143 31.7147 25.8925 29.7862 26.6617C23.804 29.026 19.8828 33.3322 17.5107 39.1306C17.4588 39.2567 17.4 39.3793 17.3482 39.5054C18.3302 34.5417 19.7134 29.738 24.2086 26.5799H24.2155ZM17.9049 66.0036C14.575 61.7042 13.8488 56.8972 15.0694 51.7188C15.1974 51.1772 15.3737 50.6457 15.5224 50.1074C15.6711 49.5692 15.8682 49.501 16.2797 49.9166C17.4759 51.1817 18.4046 52.6687 19.0114 54.291C19.4318 55.3792 19.7478 56.5038 19.9554 57.6501C20.1083 58.4131 20.1847 59.189 20.1836 59.9667C20.1836 62.2732 19.8379 64.181 18.8524 65.9355C18.4547 66.6203 18.3821 66.6203 17.9014 66.0036H17.9049ZM20.3738 68.5145C19.1324 67.4072 19.129 67.4277 19.8586 65.9662C21.3178 63.0261 21.3455 59.9531 20.6919 56.8188C20.0522 53.7527 18.7382 51.0273 16.4491 48.8333C16.3228 48.7302 16.2379 48.5862 16.2094 48.4271C16.1809 48.2679 16.2107 48.104 16.2935 47.9645C16.6393 47.2184 16.9401 46.4621 17.2894 45.7262C17.6386 44.9904 17.6974 45.0108 18.2887 45.5082C20.315 47.2116 21.7224 49.3307 22.784 51.7052C23.9043 54.2058 24.5302 56.8154 24.6374 60.5084C24.6517 63.4677 23.5159 66.3202 21.463 68.4804C21.0585 68.9028 20.7957 68.896 20.3704 68.5145H20.3738ZM23.1574 70.5211C21.8123 69.5978 21.8158 69.6285 22.8116 68.3373C24.7895 65.7856 25.5779 62.8864 25.4915 59.6908C25.4005 55.5873 24.1386 51.592 21.8503 48.1621C20.9894 46.847 19.9268 45.6713 18.7002 44.677C18.2023 44.275 18.1919 43.9615 18.4858 43.4471C19.0529 42.4489 19.6857 41.495 20.3289 40.5479C20.6332 40.0948 20.889 40.0335 21.3386 40.3946C23.7798 42.3681 25.774 44.8239 27.1928 47.6034C29.0254 51.1295 30.1665 54.8497 30.2322 58.9413C30.1596 63.6052 28.4099 67.5469 24.5233 70.4938C24.3439 70.6674 24.1041 70.7669 23.8527 70.772C23.6014 70.777 23.3576 70.6873 23.1712 70.5211H23.1574ZM25.5779 43.3381C24.6198 42.186 23.5586 41.1211 22.407 40.1561C21.2936 39.2226 21.2867 39.1954 22.2826 38.112C23.7691 36.4296 25.5942 35.0699 27.6423 34.1192C25.6747 36.9026 25.2218 40.0028 25.5918 43.3381H25.5779ZM35.0629 38.3437C36.7711 39.2805 38.6867 39.6826 40.5056 40.3299C40.6128 40.3673 40.713 40.4218 40.9136 40.5104C35.381 42.6703 33.3063 46.9459 32.8948 52.3287C32.8325 52.3287 32.7668 52.3287 32.7599 52.298C31.9162 49.2319 31.3076 46.1283 31.9819 42.9258C32.2901 41.3405 32.9816 39.8517 33.9979 38.5856C34.3091 38.1904 34.5822 38.0677 35.0629 38.3437ZM33.2682 37.3659C33.5967 37.584 33.5587 37.7679 33.3408 38.0473C30.7025 41.3723 30.4501 45.1607 31.1382 49.1365C31.6465 52.0766 32.5836 54.9281 32.8671 57.9159C33.3374 63.0056 31.9439 67.4549 28.1679 71.0764C27.9292 71.3037 27.6738 71.5132 27.4037 71.7032C26.2591 72.5209 26.6568 72.572 25.2771 71.7918C24.793 71.5227 24.8068 71.3694 25.2425 71.0389C27.9634 69.0044 29.8784 66.0983 30.6576 62.8217C31.3491 60.0383 31.1728 57.2686 30.623 54.5022C30.0456 51.8319 29.1034 49.251 27.8221 46.8301C26.0932 43.3892 25.8615 39.8699 27.4383 36.3064C27.8237 35.4529 28.3495 34.6678 28.9943 33.9829C29.0602 33.8915 29.1458 33.8157 29.2451 33.7609C29.3444 33.7061 29.4548 33.6737 29.5683 33.6661C29.6029 33.7172 29.679 33.833 29.762 33.9489C30.7176 35.2793 31.9047 36.4327 33.2682 37.3557V37.3659ZM69.7385 61.5543C69.1288 63.1466 68.6207 64.7748 68.217 66.4295C68.179 66.576 68.1029 66.7123 67.968 67.0461C67.7225 65.881 67.5289 64.9134 67.3145 63.9493C66.1907 58.8629 64.4652 53.9912 61.8061 49.4772C59.306 45.2357 56.1352 41.621 51.6192 39.335C49.1192 38.0677 46.4324 37.509 43.6661 37.2262C40.9482 36.9537 38.2718 36.4904 35.872 35.0833C35.0648 34.6361 34.3381 34.0605 33.7212 33.3799C33.4135 33.0393 33.4895 32.8349 33.946 32.8144C35.1943 32.7565 36.446 32.7054 37.6978 32.6713C37.8642 32.6795 38.0243 32.7365 38.1577 32.8349C40.8168 34.7154 43.8977 35.4445 47.0479 35.901C55.2119 37.0695 61.0488 41.4848 65.1914 48.3291C67.4597 52.0766 68.8463 56.1443 69.7765 60.3824C69.8865 60.7618 69.8731 61.1657 69.7385 61.5373V61.5543ZM72.1382 55.7832C71.6161 56.9483 71.1355 58.1305 70.6375 59.3058L70.4542 59.2854C70.1742 58.2804 69.9079 57.2686 69.6071 56.2669C68.0303 51.0273 65.551 46.285 61.6851 42.299C57.9111 38.3663 52.8876 35.8207 47.4455 35.0833C45.1979 34.7427 42.9745 34.3032 40.8756 33.3799C40.3235 33.1436 39.8003 32.8465 39.3161 32.4942C40.7618 32.2295 42.184 31.8525 43.5693 31.3665C43.6617 31.3419 43.7582 31.3355 43.8531 31.3478C43.9481 31.3601 44.0396 31.3908 44.1225 31.438C46.0416 32.3306 48.1025 32.7735 50.16 33.1994C58.0335 34.8244 63.5834 39.5429 67.8263 46.009C69.5269 48.7014 70.9726 51.5421 72.1451 54.4954C72.2402 54.6943 72.2889 54.9117 72.2877 55.1316C72.2865 55.3514 72.2354 55.5682 72.1382 55.7662V55.7832ZM73.6182 51.1908C73.4233 52.0993 73.1491 52.9895 72.7987 53.8515C72.2074 52.3866 71.6541 51.0818 71.011 49.8212C68.6319 45.1505 65.6478 40.9397 61.5225 37.5805C58.1822 34.8551 54.3232 33.2539 50.1358 32.3204C48.6312 32.0117 47.1445 31.6239 45.682 31.1587C45.4434 31.0769 45.0942 31.0395 45.0423 30.7873C44.9835 30.4773 45.3881 30.4671 45.5679 30.3138C45.7325 30.2226 45.8918 30.1226 46.0451 30.014C46.913 29.135 47.9262 29.1282 49.0984 29.2815C51.3668 29.5745 53.6732 29.4791 55.9346 29.9629C59.472 30.7124 62.2867 32.5248 64.0918 35.6182C65.9607 38.8787 68.1372 41.9584 70.5926 44.8166C71.6667 46.0311 72.58 47.3751 73.3104 48.8162C73.7085 49.5365 73.8183 50.3776 73.6182 51.1737V51.1908ZM71.253 40.5002C72.6362 42.4557 73.6735 44.5509 73.8844 46.9732C73.9017 47.1571 73.919 47.3411 73.9329 47.5285C73.9329 47.6443 73.9329 47.7567 73.9329 47.8691C72.3388 45.096 70.0151 42.9224 68.1478 40.4082C67.024 38.8956 66.1492 37.2433 65.2017 35.6387C62.5945 31.2098 58.5557 29.118 53.4934 28.7092C52.0099 28.5899 50.523 28.5048 49.0362 28.3923C48.8356 28.3923 48.5555 28.4162 48.476 28.1914C48.3964 27.9665 48.6592 27.8915 48.7733 27.7519C49.2989 27.0909 49.8349 26.4436 50.3536 25.7759C50.5507 25.517 50.7202 25.3092 51.104 25.4557C53.7631 26.4539 56.6089 26.8184 59.2957 27.7144C62.5876 28.8114 65.43 30.508 67.3076 33.506C67.4469 33.6951 67.563 33.8998 67.6534 34.1158C68.4418 36.4461 69.8284 38.4731 71.253 40.4832V40.5002ZM67.228 31.789C66.4043 30.8954 65.5018 30.0757 64.5309 29.3395C62.3006 27.7076 59.7417 26.8354 57.0999 26.1677C55.4747 25.7589 53.8253 25.4318 52.2347 24.9038C51.9166 24.7982 51.3737 24.8016 51.3771 24.4268C51.384 24.1792 51.4665 23.9394 51.614 23.7388C51.7614 23.5382 51.9669 23.3862 52.2036 23.3026C53.2204 22.9214 54.2846 22.6762 55.3675 22.5735C58.9153 22.2328 61.9064 23.4457 64.5067 25.7453C64.8525 26.0553 65.1983 26.396 65.5198 26.723C66.6022 27.7655 67.439 28.9034 67.1623 30.525C67.146 30.9418 67.168 31.3591 67.228 31.7719V31.789ZM67.2799 26.4709C67.2557 26.6685 67.3491 26.9547 67.1105 27.0262C66.8719 27.0978 66.7647 26.815 66.6402 26.6617C65.1181 24.8331 63.167 23.3973 60.9555 22.4781C58.4139 21.4288 55.8067 21.4118 53.1649 22.0489C52.9816 22.0932 52.7983 22.1272 52.5424 22.1851C52.6415 21.599 52.9103 21.0535 53.3163 20.6142C53.7224 20.1749 54.2485 19.8603 54.8316 19.7084C58.4623 18.5433 61.8199 18.7817 64.8387 21.2755C65.3946 21.7794 65.9038 22.3312 66.3601 22.9244C67.2419 23.9499 67.4321 25.1559 67.2799 26.4539V26.4709ZM59.4098 15.2795C62.5979 14.7481 66.4154 16.7581 67.1036 21.2449C67.1919 21.546 67.2362 21.858 67.235 22.1715C66.7785 21.7831 66.246 21.3709 65.7515 20.9144C62.6394 18.0663 59.0121 17.6029 55.0529 18.734C54.7278 18.826 54.299 19.1973 54.095 18.9043C53.891 18.6114 54.2126 18.1242 54.4858 17.8823C55.8793 16.54 57.4665 15.5895 59.4098 15.2625V15.2795ZM54.1469 16.1619C52.9505 18.7442 51.9512 21.4186 50.4988 23.8885C47.5977 28.8216 43.2753 31.4244 37.5145 31.7753C36.3752 31.8811 35.2288 31.8913 34.0878 31.806C35.0663 31.4857 36.038 31.1246 37.0304 30.8521C43.1059 29.1725 47.487 25.4318 50.6129 20.124C51.5362 18.5535 52.4007 16.9454 53.2755 15.3545C53.317 15.2761 53.362 15.1909 53.4 15.1058C53.5037 14.8503 53.5521 14.5879 53.2548 14.4244C52.9574 14.2609 52.7568 14.4482 52.622 14.6935C52.1206 15.6168 51.6296 16.5468 51.1247 17.4701C49.8271 19.9336 48.2293 22.2321 46.3667 24.3144C43.5831 27.3294 40.0664 29.0839 36.159 30.2082C33.4672 30.933 30.8189 31.8066 28.2267 32.8246C24.6339 34.2998 21.9402 36.8208 19.6961 39.8699C18.8212 41.0555 18.0882 42.3331 17.2963 43.5765C17.6663 42.0162 18.3717 40.5922 19.0771 39.1477C21.4976 34.2861 25.6056 31.5607 30.6783 29.9765C32.8222 29.2952 34.9626 28.6479 37.0442 27.7962C41.2732 26.0927 44.5928 23.2378 47.4179 19.7595C49.6275 17.034 51.5051 14.0462 53.8046 11.3719C56.3185 8.45222 59.1297 5.88351 62.7051 4.24483C63.3607 3.92834 64.0596 3.70796 64.7799 3.5907C59.479 6.37408 56.5259 11.021 54.1469 16.1448V16.1619ZM75.3886 0.0169544H73.0995C74.4614 0.458094 75.7448 1.10642 76.9032 1.93841V0.865249C76.4134 0.550052 75.9066 0.261172 75.3852 -9.63435e-05L75.3886 0.0169544Z" fill="#D6B283"/>
<path d="M36.1936 0C32.9363 4.3153 28.5436 6.56496 23.0157 6.74893C21.1484 6.80344 19.2811 6.82729 17.4174 7.01126C13.2886 7.42689 10.1351 9.39602 7.7595 12.7006C6.1758 14.9014 5.03124 17.3373 3.82444 19.7323C2.8052 21.8008 1.55742 23.7523 0.10376 25.5512V24.1373C0.414969 23.7251 0.708891 23.2993 0.992437 22.8632C2.03302 21.2223 2.97741 19.524 3.82098 17.7768C4.7274 15.8794 5.77693 14.0516 6.96074 12.3088C9.78582 8.27176 13.7001 6.25155 18.6276 5.99945C20.7992 5.89043 22.9811 5.97217 25.1457 5.67918C29.271 5.11706 32.5075 3.10702 35.0664 0H36.1936Z" fill="#D6B283"/>
<path d="M51.18 0C48.5244 1.13447 46.2353 2.84812 43.9807 4.61967C42.3936 5.86997 40.8687 7.18161 39.1881 8.33993C36.0103 10.5441 32.5317 11.2323 28.7419 10.5918C27.8325 10.4385 26.9196 10.2886 26.0275 10.0603C20.9928 8.7862 17.2825 10.8916 14.7859 14.7822C12.4103 18.4888 11.3522 22.6179 10.8163 26.9241C10.2803 31.2303 10.5085 35.574 10.8923 39.8973C11.245 44.3815 11.2034 48.8873 10.7678 53.3644C10.4221 57.2107 10.5362 61.0434 11.8052 64.7739C13.2369 69.1872 16.0974 73.0166 19.9485 75.6757H18.4616C15.4402 73.3422 13.0749 70.2859 11.5908 66.7975C10.1765 63.5065 9.67515 60.0452 9.73394 56.4851C9.7858 53.3133 10.2319 50.1654 10.2872 46.9971C10.3391 44.04 10.097 41.0863 9.86188 38.1394C9.3674 32.0582 9.47804 26.0247 11.3626 20.1445C12.3377 17.0988 13.6379 14.2167 15.9754 11.9C16.9968 10.9161 18.18 10.1097 19.4748 9.51526C19.2022 9.4249 18.9071 9.4249 18.6345 9.51526C14.9311 10.1626 12.2824 12.2782 10.3702 15.358C8.25741 18.7648 7.25808 22.5123 6.82585 26.4676C6.2553 31.6221 6.9365 36.688 7.75256 41.7676C8.51675 46.5372 8.93517 51.3442 8.57209 56.1785C8.30238 59.7352 8.87983 63.1863 9.74776 66.6135C10.1835 68.3544 10.5569 70.1089 11.003 71.8498C11.3945 73.3361 12.2263 74.6739 13.3924 75.6927H11.4145C11.0341 74.7831 10.6987 73.8496 10.3771 72.8991C9.45039 70.0101 8.91441 67.019 8.27124 64.0414C6.96407 57.7334 4.16325 51.8187 0.0968351 46.7791V45.4163C1.25049 46.7594 2.32201 48.1689 3.30573 49.6374C3.46134 49.869 3.62387 50.0939 3.78985 50.3187C3.95237 50.1688 3.82788 50.0394 3.78985 49.9338C2.96156 47.3518 1.71315 44.9194 0.0933738 42.7318V41.3077C2.72458 44.4792 4.50776 48.2494 5.28019 52.2743C5.40948 52.9372 5.61 53.5848 5.8784 54.2059C6.43511 55.4596 6.96417 56.727 7.60733 57.9841C7.6592 57.0506 7.72836 56.1171 7.76294 55.1837C7.89284 53.0187 7.84079 50.8468 7.60733 48.6903C7.23388 45.9137 6.04437 43.4199 4.4088 41.151C3.19142 39.4378 1.73385 37.9031 0.0795288 36.5927V35.4991C2.81484 37.4896 5.04669 40.0756 6.6011 43.0554C6.67717 43.1985 6.76707 43.3382 6.85352 43.4778C6.92569 43.5469 7.00189 43.6117 7.08173 43.672C6.71174 40.5173 6.49391 37.4546 4.09414 35.1073C2.92101 33.9467 1.56535 32.9803 0.0795288 32.2456V31.261C0.456437 31.4279 0.829902 31.6017 1.19644 31.8129C3.01484 32.8373 4.60769 34.2085 5.88186 35.8466C5.98875 35.3397 6.00046 34.8178 5.91643 34.3067C5.58805 30.9626 5.69497 27.5909 6.23457 24.2736C6.88811 20.4103 8.11565 16.7786 10.5154 13.583C13.0397 10.2443 16.4284 8.52048 20.6539 8.41487C23.1124 8.35695 25.5745 8.4796 28.0192 8.12189C32.081 7.54131 35.8226 5.61949 38.6314 2.67098C39.4517 1.84535 40.2055 0.958017 40.8859 0.0170507H41.9648C41.3447 0.930285 40.6594 1.79894 39.9143 2.61646C36.4875 6.39121 32.2585 8.62948 27.1201 9.12006C26.978 9.12615 26.8389 9.16218 26.7121 9.22569C29.3505 9.90706 31.9854 10.3636 34.7033 9.56637C37.2102 8.81687 39.2746 7.36555 41.2559 5.76094C43.3929 4.02687 45.4884 2.23832 47.8536 0.804046C48.2996 0.538314 48.7457 0.275986 49.2021 0.0341015L51.18 0Z" fill="#D6B283"/>
<path d="M31.3526 0C28.6554 2.81744 25.2114 4.16315 21.3489 4.66396C18.7037 5.00464 16.0204 5.06596 13.3958 5.64171C10.4635 6.2856 7.72837 7.34512 5.62253 9.55614C4.19788 11.0586 3.27463 12.8778 2.45166 14.7379C1.73242 16.3595 1.06849 18.0084 0.252433 19.5858C0.200564 19.6846 0.14871 19.7834 0.0933838 19.8822V17.879C0.380388 17.2692 0.650107 16.6526 0.919821 16.0325C0.940569 15.9814 0.919822 15.9065 0.899075 15.7259L0.0933838 16.6594V15.2489C0.595929 14.6153 1.07426 13.9646 1.52839 13.2968C2.83547 11.3822 4.15984 9.46756 5.98214 7.97538C8.54442 5.88359 11.6046 4.95013 14.8239 4.49021C17.2444 4.14952 19.665 4.00304 22.0855 3.64873C25.1526 3.19562 27.8809 2.06794 30.1112 0H31.3526Z" fill="#D6B283"/>
<path d="M7.87702 75.6621H6.91919C6.40217 73.6239 5.99016 71.5613 5.68472 69.4821C4.8652 64.5252 2.84927 60.1338 0.0968018 56.0797V54.5535C2.38246 57.6775 4.29465 61.0026 5.44613 64.7228C6.24144 67.295 6.64255 69.9489 7.15432 72.5789C7.36525 73.618 7.61077 74.6503 7.87702 75.6621Z" fill="#D6B283"/>
<path d="M21.9956 0C19.8621 1.48197 17.4416 2.35753 14.9139 2.99461C13.2679 3.41024 11.6081 3.79521 9.94835 4.1427C5.72974 5.02507 2.51044 7.27018 0.10376 10.7213V9.26316C2.61418 5.96536 6.02019 4.08819 10.1316 3.19901C12.9913 2.58237 15.8682 2.01343 18.5896 0.892585C19.2 0.638241 19.7906 0.339905 20.3565 0H21.9956Z" fill="#D6B283"/>
<path d="M4.17715 75.6621H3.24006C2.62137 72.142 1.56812 68.7098 0.10376 65.4416V63.3464C1.71607 66.5544 2.9327 69.941 3.72763 73.434C3.89822 74.1722 4.04805 74.9148 4.17715 75.6621Z" fill="#D6B283"/>
<path d="M14.7202 0C12.868 1.20235 10.7867 2.02072 8.60323 2.40523C6.35906 2.85153 4.10798 3.19902 1.85691 3.67938C1.26326 3.80605 0.677828 3.96761 0.10376 4.16316V3.27058C1.32756 2.88009 2.57937 2.58059 3.84865 2.37458C6.54925 1.91807 9.27751 1.58077 11.8467 0.562133C12.2587 0.398279 12.6605 0.210568 13.0501 0H14.7202Z" fill="#D6B283"/>
<path d="M21.7881 116.84H23.517C23.9942 116.84 25.1284 116.84 25.1284 117.9C25.1284 118.404 24.7549 118.561 24.4956 118.687C24.7384 118.748 24.9538 118.887 25.1077 119.082C25.2617 119.277 25.3456 119.516 25.3462 119.763C25.3462 120.85 24.1083 120.908 23.2438 120.901H21.7708H21.2244L21.2936 119.338L21.2244 116.84H21.7881ZM21.7639 120.356H23.5862C24.2501 120.356 24.9693 120.261 24.9693 119.729C24.9693 119.198 24.3988 118.949 23.6415 118.949H21.7327V119.324L21.7639 120.356ZM21.7639 117.355L21.7327 118.418H23.3856C24.0253 118.418 24.7687 118.336 24.7687 117.886C24.7687 117.358 24.0253 117.355 23.2265 117.355H21.7639Z" fill="#D6B283"/>
<path d="M27.4521 119.324L26.7605 118.329L25.5606 116.837H26.2522L27.0786 118.05L27.6561 118.792L28.2336 118.036L29.0392 116.837H29.8207L28.569 118.35L27.8774 119.324L27.9293 120.888H27.6561H27.3829L27.4521 119.324Z" fill="#D6B283"/>
<path d="M34.928 119.324L34.8312 116.823H35.4087L38.4965 120.261V119.324L38.4274 116.823H38.7524H39.036L38.9668 119.324L39.0602 120.888H38.4965L35.4259 117.423L35.381 119.324L35.4502 120.888H35.1044H34.8312L34.928 119.324Z" fill="#D6B283"/>
<path d="M42.4731 121C41.5222 121 40.3742 120.7 40.3742 119.324L40.3016 116.827H40.5748H40.8479L40.7788 119.324C40.7788 120.097 41.415 120.469 42.4731 120.469C43.5312 120.469 44.1744 120.097 44.1744 119.324L44.1052 116.827H44.3784H44.6516L44.5824 119.324C44.5824 120.7 43.4206 121 42.4731 121Z" fill="#D6B283"/>
<path d="M46.0313 119.324L46.1316 116.823H46.7159L48.4864 120.298H48.5106L50.1876 116.823H50.8792L50.9795 119.324L51.1835 120.888H50.8861H50.5404L50.4954 119.324L50.3502 117.484L48.7423 120.891H48.5037H48.2789L46.6537 117.593L46.5223 119.327L46.4773 120.891H46.1316H45.8342L46.0313 119.324Z" fill="#D6B283"/>
<path d="M55.3675 119.842H52.8087L52.3488 120.888H51.7368L52.7741 118.803L53.7147 116.827H54.0363H54.3474L55.3572 118.935L56.353 120.888H55.8344L55.3675 119.842ZM53.1856 119.004L53.0438 119.317H55.1186L55.001 119.072L54.0363 117.28L53.1856 119.004Z" fill="#D6B283"/>
</g>
<defs>
<clipPath id="clip0_203_94">
<rect width="77" height="121" fill="white"/>
</clipPath>
</defs>
</svg>
